<svg width="124" height="180" viewBox="0 0 124 180" fill="none" xmlns="http://www.w3.org/2000/svg">
<path d="M98.9969 180C87.9698 166.897 79.6671 152.886 74.0888 137.968C68.5104 122.919 65.7212 106.897 65.7212 89.9027C65.7212 72.9081 68.4455 56.9514 73.8942 42.0324C79.4725 26.9838 87.8401 12.973 98.9969 0H123.321C114.11 14.2703 107.235 28.8649 102.694 43.7838C98.1536 58.573 95.8834 73.9459 95.8834 89.9027C95.8834 105.859 98.1536 121.362 102.694 136.411C107.364 151.33 114.24 165.859 123.321 180H98.9969Z" fill="white"/>
<path d="M0 177.081V162.487C4.54054 161.449 8.23784 159.438 11.0919 156.454C14.0757 153.6 16.0216 149.773 16.9297 144.973H3.89189V115.784H33.0811V132.714C33.0811 145.038 30.2919 154.962 24.7135 162.487C19.1351 170.011 10.8973 174.876 0 177.081ZM3.89189 67.9135V38.7244H33.0811V67.9135H3.89189Z" fill="white"/>
</svg>
