<svg width="198" height="49" viewBox="0 0 198 49" fill="none" xmlns="http://www.w3.org/2000/svg">
<path d="M0.356055 38V11.45H3.35606V16.8L2.80605 16.05C3.47272 14.45 4.53939 13.1833 6.00606 12.25C7.50606 11.3167 9.17272 10.85 11.0061 10.85C13.0727 10.85 14.9561 11.45 16.6561 12.65C18.3561 13.8167 19.5394 15.3833 20.2061 17.35L19.2561 17.4C19.8227 15.3667 20.9394 13.7667 22.6061 12.6C24.3061 11.4333 26.1894 10.85 28.2561 10.85C30.0227 10.85 31.6394 11.2667 33.1061 12.1C34.6061 12.9333 35.8061 14.1 36.7061 15.6C37.6394 17.0667 38.1061 18.75 38.1061 20.65V38H35.1061V21.5C35.1061 19.9 34.7727 18.5333 34.1061 17.4C33.4727 16.2333 32.6227 15.35 31.5561 14.75C30.4894 14.1167 29.2894 13.8 27.9561 13.8C26.5227 13.8 25.2561 14.15 24.1561 14.85C23.0894 15.55 22.2394 16.5167 21.6061 17.75C21.0061 18.9833 20.7061 20.4 20.7061 22V38H17.7061V21.5C17.7061 19.9 17.3894 18.5333 16.7561 17.4C16.1227 16.2333 15.2561 15.35 14.1561 14.75C13.0894 14.1167 11.8894 13.8 10.5561 13.8C9.12272 13.8 7.85606 14.15 6.75606 14.85C5.68939 15.55 4.85606 16.5167 4.25606 17.75C3.65606 18.9833 3.35606 20.4 3.35606 22V38H0.356055ZM45.4268 49C44.9601 49 44.4434 48.95 43.8768 48.85C43.3434 48.7833 42.8268 48.6667 42.3268 48.5V45.7C42.7268 45.8 43.1768 45.8833 43.6768 45.95C44.2101 46.0167 44.6934 46.05 45.1268 46.05C46.7601 46.0167 48.0434 45.6167 48.9768 44.85C49.9101 44.0833 50.7601 42.8167 51.5268 41.05L53.4268 36.6V39.4L42.1768 11.45H45.4768L55.1268 35.55H53.9268L63.6268 11.45H66.9768L54.5768 41.7C54.1101 42.8 53.4934 43.9167 52.7268 45.05C51.9601 46.1833 50.9768 47.1167 49.7768 47.85C48.6101 48.6167 47.1601 49 45.4268 49Z" fill="#484848"/>
<path d="M83.7369 38.3C80.4369 38.3 77.8702 37.4167 76.0369 35.65C74.2369 33.85 73.3369 31.35 73.3369 28.15V17.2H68.7369V10.7H68.9869C70.3869 10.7 71.4536 10.35 72.1869 9.65C72.9536 8.95 73.3369 7.9 73.3369 6.5V4.5H80.8369V10.7H87.2369V17.2H80.8369V27.65C80.8369 28.5833 81.0036 29.3667 81.3369 30C81.6702 30.6 82.1869 31.05 82.8869 31.35C83.5869 31.65 84.4536 31.8 85.4869 31.8C85.7202 31.8 85.9869 31.7833 86.2869 31.75C86.5869 31.7167 86.9036 31.6833 87.2369 31.65V38C86.7369 38.0667 86.1702 38.1333 85.5369 38.2C84.9036 38.2667 84.3036 38.3 83.7369 38.3ZM100.082 38.6C98.1152 38.6 96.4152 38.2833 94.9818 37.65C93.5485 37.0167 92.4485 36.1167 91.6818 34.95C90.9152 33.75 90.5318 32.3333 90.5318 30.7C90.5318 29.1667 90.8818 27.8167 91.5818 26.65C92.2818 25.45 93.3485 24.45 94.7818 23.65C96.2485 22.85 98.0652 22.2833 100.232 21.95L108.582 20.6V26.1L101.582 27.35C100.515 27.55 99.6985 27.9 99.1318 28.4C98.5652 28.8667 98.2818 29.55 98.2818 30.45C98.2818 31.2833 98.5985 31.9333 99.2318 32.4C99.8652 32.8667 100.649 33.1 101.582 33.1C102.815 33.1 103.899 32.8333 104.832 32.3C105.765 31.7667 106.482 31.05 106.982 30.15C107.515 29.2167 107.782 28.2 107.782 27.1V20C107.782 18.9667 107.365 18.1 106.532 17.4C105.732 16.7 104.632 16.35 103.232 16.35C101.899 16.35 100.715 16.7167 99.6818 17.45C98.6818 18.1833 97.9485 19.15 97.4818 20.35L91.4818 17.5C92.0152 15.9667 92.8652 14.65 94.0318 13.55C95.1985 12.45 96.5985 11.6 98.2318 11C99.8652 10.4 101.649 10.1 103.582 10.1C105.882 10.1 107.915 10.5167 109.682 11.35C111.449 12.1833 112.815 13.35 113.782 14.85C114.782 16.3167 115.282 18.0333 115.282 20V38H108.282V33.6L109.982 33.3C109.182 34.5 108.299 35.5 107.332 36.3C106.365 37.0667 105.282 37.6333 104.082 38C102.882 38.4 101.549 38.6 100.082 38.6ZM131.482 38.6C128.482 38.6 125.866 37.9 123.632 36.5C121.432 35.0667 119.932 33.15 119.132 30.75L124.632 28.15C125.332 29.6167 126.282 30.7667 127.482 31.6C128.682 32.4333 130.016 32.85 131.482 32.85C132.549 32.85 133.366 32.6333 133.932 32.2C134.499 31.7667 134.782 31.1667 134.782 30.4C134.782 30 134.682 29.6667 134.482 29.4C134.282 29.1 133.982 28.8333 133.582 28.6C133.182 28.3667 132.682 28.1667 132.082 28L127.432 26.7C125.199 26.0667 123.482 25.05 122.282 23.65C121.082 22.2167 120.482 20.5333 120.482 18.6C120.482 16.9 120.916 15.4167 121.782 14.15C122.649 12.8833 123.866 11.9 125.432 11.2C126.999 10.4667 128.799 10.1 130.832 10.1C133.499 10.1 135.832 10.7333 137.832 12C139.866 13.2333 141.299 14.9833 142.132 17.25L136.582 19.85C136.182 18.7167 135.449 17.8167 134.382 17.15C133.349 16.45 132.166 16.1 130.832 16.1C129.866 16.1 129.099 16.3 128.532 16.7C127.999 17.1 127.732 17.65 127.732 18.35C127.732 18.7167 127.832 19.05 128.032 19.35C128.232 19.65 128.549 19.9167 128.982 20.15C129.449 20.3833 130.016 20.6 130.682 20.8L135.032 22.1C137.299 22.7667 139.032 23.7833 140.232 25.15C141.432 26.4833 142.032 28.1333 142.032 30.1C142.032 31.8 141.582 33.2833 140.682 34.55C139.816 35.8167 138.599 36.8167 137.032 37.55C135.466 38.25 133.616 38.6 131.482 38.6ZM146.515 38V0.149999H154.015V24.4L151.215 23.5L163.265 10.7H172.515L162.615 21.7L172.465 38H163.965L155.715 24.15L160.065 23.05L151.715 32.15L154.015 27.8V38H146.515ZM186.512 38.6C183.512 38.6 180.895 37.9 178.662 36.5C176.462 35.0667 174.962 33.15 174.162 30.75L179.662 28.15C180.362 29.6167 181.312 30.7667 182.512 31.6C183.712 32.4333 185.045 32.85 186.512 32.85C187.578 32.85 188.395 32.6333 188.962 32.2C189.528 31.7667 189.812 31.1667 189.812 30.4C189.812 30 189.712 29.6667 189.512 29.4C189.312 29.1 189.012 28.8333 188.612 28.6C188.212 28.3667 187.712 28.1667 187.112 28L182.462 26.7C180.228 26.0667 178.512 25.05 177.312 23.65C176.112 22.2167 175.512 20.5333 175.512 18.6C175.512 16.9 175.945 15.4167 176.812 14.15C177.678 12.8833 178.895 11.9 180.462 11.2C182.028 10.4667 183.828 10.1 185.862 10.1C188.528 10.1 190.862 10.7333 192.862 12C194.895 13.2333 196.328 14.9833 197.162 17.25L191.612 19.85C191.212 18.7167 190.478 17.8167 189.412 17.15C188.378 16.45 187.195 16.1 185.862 16.1C184.895 16.1 184.128 16.3 183.562 16.7C183.028 17.1 182.762 17.65 182.762 18.35C182.762 18.7167 182.862 19.05 183.062 19.35C183.262 19.65 183.578 19.9167 184.012 20.15C184.478 20.3833 185.045 20.6 185.712 20.8L190.062 22.1C192.328 22.7667 194.062 23.7833 195.262 25.15C196.462 26.4833 197.062 28.1333 197.062 30.1C197.062 31.8 196.612 33.2833 195.712 34.55C194.845 35.8167 193.628 36.8167 192.062 37.55C190.495 38.25 188.645 38.6 186.512 38.6Z" fill="#EE4E4E"/>
</svg>
