<svg width="145" height="23" viewBox="0 0 145 23" fill="none" xmlns="http://www.w3.org/2000/svg">
    <path d="M120.8 22V7.42H125.39V22H120.8ZM130.13 22V13.48C130.13 12.74 129.9 12.17 129.44 11.77C129 11.35 128.45 11.14 127.79 11.14C127.33 11.14 126.92 11.24 126.56 11.44C126.2 11.62 125.91 11.88 125.69 12.22C125.49 12.56 125.39 12.98 125.39 13.48L123.62 12.7C123.62 11.54 123.87 10.55 124.37 9.73C124.87 8.89 125.55 8.25 126.41 7.81C127.27 7.35 128.24 7.12 129.32 7.12C130.34 7.12 131.25 7.35 132.05 7.81C132.87 8.27 133.52 8.91 134 9.73C134.48 10.55 134.72 11.53 134.72 12.67V22H130.13ZM139.46 22V13.48C139.46 12.74 139.23 12.17 138.77 11.77C138.33 11.35 137.78 11.14 137.12 11.14C136.66 11.14 136.25 11.24 135.89 11.44C135.53 11.62 135.24 11.88 135.02 12.22C134.82 12.56 134.72 12.98 134.72 13.48L132.08 13.12C132.12 11.88 132.41 10.82 132.95 9.94C133.51 9.04 134.24 8.35 135.14 7.87C136.06 7.37 137.09 7.12 138.23 7.12C139.35 7.12 140.34 7.36 141.2 7.84C142.08 8.3 142.77 8.96999 143.27 9.84999C143.79 10.71 144.05 11.75 144.05 12.97V22H139.46Z" fill="#000"/>
    <path d="M111.108 22.33C109.768 22.33 108.578 22.06 107.538 21.52C106.518 20.96 105.718 20.2 105.138 19.24C104.558 18.26 104.268 17.14 104.268 15.88V7.42001H108.858V15.82C108.858 16.32 108.938 16.75 109.098 17.11C109.278 17.47 109.538 17.75 109.878 17.95C110.218 18.15 110.628 18.25 111.108 18.25C111.788 18.25 112.328 18.04 112.728 17.62C113.128 17.18 113.328 16.58 113.328 15.82V7.42001H117.918V15.85C117.918 17.13 117.628 18.26 117.048 19.24C116.468 20.2 115.668 20.96 114.648 21.52C113.628 22.06 112.448 22.33 111.108 22.33Z" fill="#000"/>
    <path d="M95.3923 22.33C93.8123 22.33 92.4023 22.01 91.1623 21.37C89.9423 20.71 88.9823 19.8 88.2823 18.64C87.5823 17.48 87.2323 16.17 87.2323 14.71C87.2323 13.25 87.5723 11.95 88.2523 10.81C88.9523 9.65 89.8923 8.74 91.0723 8.08C92.2523 7.42 93.5823 7.09 95.0623 7.09C96.5023 7.09 97.7723 7.39999 98.8723 8.01999C99.9723 8.63999 100.832 9.49999 101.452 10.6C102.092 11.7 102.412 12.96 102.412 14.38C102.412 14.64 102.392 14.92 102.352 15.22C102.332 15.5 102.282 15.83 102.202 16.21L89.6323 16.24V13.09L100.252 13.06L98.2723 14.38C98.2523 13.54 98.1223 12.85 97.8823 12.31C97.6423 11.75 97.2823 11.33 96.8023 11.05C96.3423 10.75 95.7723 10.6 95.0923 10.6C94.3723 10.6 93.7423 10.77 93.2023 11.11C92.6823 11.43 92.2723 11.89 91.9723 12.49C91.6923 13.09 91.5523 13.82 91.5523 14.68C91.5523 15.54 91.7023 16.28 92.0023 16.9C92.3223 17.5 92.7623 17.97 93.3223 18.31C93.9023 18.63 94.5823 18.79 95.3623 18.79C96.0823 18.79 96.7323 18.67 97.3123 18.43C97.8923 18.17 98.4023 17.79 98.8423 17.29L101.362 19.81C100.642 20.65 99.7723 21.28 98.7523 21.7C97.7323 22.12 96.6123 22.33 95.3923 22.33Z" fill="#000"/>
    <path d="M79.7621 22.36C78.9021 22.36 78.0521 22.25 77.2121 22.03C76.3921 21.81 75.6221 21.5 74.9021 21.1C74.2021 20.68 73.6021 20.2 73.1021 19.66L75.7121 17.02C76.1921 17.54 76.7621 17.95 77.4221 18.25C78.0821 18.53 78.8021 18.67 79.5821 18.67C80.1221 18.67 80.5321 18.59 80.8121 18.43C81.1121 18.27 81.2621 18.05 81.2621 17.77C81.2621 17.41 81.0821 17.14 80.7221 16.96C80.3821 16.76 79.9421 16.59 79.4021 16.45C78.8621 16.29 78.2921 16.12 77.6921 15.94C77.0921 15.76 76.5221 15.51 75.9821 15.19C75.4421 14.87 75.0021 14.43 74.6621 13.87C74.3221 13.29 74.1521 12.56 74.1521 11.68C74.1521 10.74 74.3921 9.93 74.8721 9.25C75.3521 8.55 76.0321 8 76.9121 7.6C77.7921 7.2 78.8221 7 80.0021 7C81.2421 7 82.3821 7.22 83.4221 7.66C84.4821 8.08 85.3421 8.71 86.0021 9.55L83.3921 12.19C82.9321 11.65 82.4121 11.27 81.8321 11.05C81.2721 10.83 80.7221 10.72 80.1821 10.72C79.6621 10.72 79.2721 10.8 79.0121 10.96C78.7521 11.1 78.6221 11.31 78.6221 11.59C78.6221 11.89 78.7921 12.13 79.1321 12.31C79.4721 12.49 79.9121 12.65 80.4521 12.79C80.9921 12.93 81.5621 13.1 82.1621 13.3C82.7621 13.5 83.3321 13.77 83.8721 14.11C84.4121 14.45 84.8521 14.91 85.1921 15.49C85.5321 16.05 85.7021 16.79 85.7021 17.71C85.7021 19.13 85.1621 20.26 84.0821 21.1C83.0221 21.94 81.5821 22.36 79.7621 22.36Z" fill="#000"/>
    <path d="M64.7602 22.33C63.4202 22.33 62.2302 22.06 61.1902 21.52C60.1702 20.96 59.3702 20.2 58.7902 19.24C58.2102 18.26 57.9202 17.14 57.9202 15.88V7.42001H62.5102V15.82C62.5102 16.32 62.5902 16.75 62.7502 17.11C62.9302 17.47 63.1902 17.75 63.5302 17.95C63.8702 18.15 64.2802 18.25 64.7602 18.25C65.4402 18.25 65.9802 18.04 66.3802 17.62C66.7802 17.18 66.9802 16.58 66.9802 15.82V7.42001H71.5702V15.85C71.5702 17.13 71.2802 18.26 70.7002 19.24C70.1202 20.2 69.3202 20.96 68.3002 21.52C67.2802 22.06 66.1002 22.33 64.7602 22.33Z" fill="#000"/>
    <path d="M32.9482 22V0.820007H36.3082L44.6482 13.81H42.9382L51.2482 0.820007H54.6382V22H49.9282V8.77001L50.7682 8.98001L45.3382 17.44H42.2182L36.8182 8.98001L37.6282 8.77001V22H32.9482Z" fill="#000"/>
    <path d="M18.6708 16.36V12.34H29.2908V16.36H18.6708Z" fill="#000"/>
    <path d="M8.81997 22.33C7.23997 22.33 5.82997 22.01 4.58997 21.37C3.36997 20.71 2.40997 19.8 1.70997 18.64C1.00997 17.48 0.659973 16.17 0.659973 14.71C0.659973 13.25 0.999973 11.95 1.67997 10.81C2.37997 9.65 3.31997 8.74 4.49997 8.08C5.67997 7.42 7.00997 7.09 8.48997 7.09C9.92997 7.09 11.2 7.39999 12.3 8.01999C13.4 8.63999 14.26 9.49999 14.88 10.6C15.52 11.7 15.84 12.96 15.84 14.38C15.84 14.64 15.82 14.92 15.78 15.22C15.76 15.5 15.71 15.83 15.63 16.21L3.05997 16.24V13.09L13.68 13.06L11.7 14.38C11.68 13.54 11.55 12.85 11.31 12.31C11.07 11.75 10.71 11.33 10.23 11.05C9.76997 10.75 9.19997 10.6 8.51997 10.6C7.79997 10.6 7.16997 10.77 6.62997 11.11C6.10997 11.43 5.69997 11.89 5.39997 12.49C5.11997 13.09 4.97997 13.82 4.97997 14.68C4.97997 15.54 5.12997 16.28 5.42997 16.9C5.74997 17.5 6.18997 17.97 6.74997 18.31C7.32997 18.63 8.00997 18.79 8.78997 18.79C9.50997 18.79 10.16 18.67 10.74 18.43C11.32 18.17 11.83 17.79 12.27 17.29L14.79 19.81C14.07 20.65 13.2 21.28 12.18 21.7C11.16 22.12 10.04 22.33 8.81997 22.33Z" fill="#000"/>
</svg>
