<svg width="85" height="50" viewBox="0 0 85 50" fill="none" xmlns="http://www.w3.org/2000/svg">
<path d="M17.4522 46.0714C13.2128 46.0714 9.5151 45.0714 6.3591 43.0714C3.25021 41.0238 1.13051 38.2857 0 34.8572L7.77224 31.1429C8.76143 33.2381 10.1039 34.881 11.7997 36.0714C13.4954 37.2619 15.3796 37.8572 17.4522 37.8572C18.9595 37.8572 20.1136 37.5476 20.9144 36.9286C21.7152 36.3095 22.1155 35.4524 22.1155 34.3571C22.1155 33.7857 21.9742 33.3095 21.6916 32.9286C21.409 32.5 20.985 32.1191 20.4198 31.7857C19.8545 31.4524 19.148 31.1667 18.3001 30.9286L11.729 29.0714C8.57301 28.1667 6.14713 26.7143 4.45137 24.7143C2.75561 22.6667 1.90773 20.2619 1.90773 17.5C1.90773 15.0714 2.52009 12.9524 3.7448 11.1429C4.96952 9.33334 6.68883 7.92858 8.90274 6.92858C11.1167 5.88096 13.6603 5.35715 16.5337 5.35715C20.302 5.35715 23.5993 6.26191 26.4256 8.07143C29.299 9.83334 31.3245 12.3333 32.5021 15.5714L24.6592 19.2857C24.0939 17.6667 23.0576 16.381 21.5503 15.4286C20.0901 14.4286 18.4178 13.9286 16.5337 13.9286C15.1676 13.9286 14.0842 14.2143 13.2835 14.7857C12.5298 15.3571 12.153 16.1429 12.153 17.1429C12.153 17.6667 12.2943 18.1429 12.5769 18.5714C12.8595 19 13.307 19.381 13.9194 19.7143C14.5788 20.0476 15.3796 20.3571 16.3217 20.6429L22.4688 22.5C25.6719 23.4524 28.1214 24.9048 29.8171 26.8571C31.5129 28.7619 32.3608 31.1191 32.3608 33.9286C32.3608 36.3572 31.7249 38.4762 30.453 40.2857C29.2283 42.0952 27.509 43.5238 25.2951 44.5714C23.0812 45.5714 20.4669 46.0714 17.4522 46.0714Z" fill="white"/>
<path fill-rule="evenodd" clip-rule="evenodd" d="M54.0877 32.3242V17.6758C54.0877 15.6814 55.5062 15.2689 56.6203 15.9943L68.9662 23.8262C69.6417 24.3681 69.6821 25.5436 69.0197 26.1302C68.5 26.5904 58.4761 32.7415 56.7358 33.927C56.3966 34.1581 55.9615 34.3879 55.4711 34.3362C55.0319 34.29 54.6402 34.0287 54.4278 33.7383C54.1707 33.3868 54.0877 32.8939 54.0877 32.3242ZM59.2112 0H61.6375C64.7571 0.1552 67.8551 0.9113 70.7365 2.3099C76.0638 4.8957 80.2506 9.044 82.7464 14.4852C84.3924 18.0735 85 21.1657 85 25.6836C85 32.1444 81.9396 38.4942 77.7791 42.7002C75.8189 44.6818 73.3527 46.4648 70.6713 47.7218C67.1218 49.3858 64.063 50 59.5939 50C50.3025 50 41.6252 43.8673 37.7939 35.5148C36.1479 31.9265 35.5403 28.8343 35.5403 24.3164C35.5403 17.8556 38.6007 11.5058 42.7612 7.2998C47.1791 2.8337 53.1409 0.2986 59.2112 0Z" fill="white"/>
</svg>
